<?xml version="1.0" encoding="utf-8"?><!DOCTYPE svg PUBLIC "-//W3C//DTD SVG 1.1//EN" "http://www.w3.org/Graphics/SVG/1.1/DTD/svg11.dtd"><svg version="1.1" id="Contours" xmlns="http://www.w3.org/2000/svg" xmlns:xlink="http://www.w3.org/1999/xlink" x="0px" y="0px" width="1096.405884px" height="1096.405884px" viewBox="0.000001 0.000005 1096.405884 237.033661" enable-background="new 0 0 1096.405884 1096.405884" xml:space="preserve" stroke="black" fill="none" stroke-linecap='round' stroke-linejoin='round'><path class="selected"  fill="#000000" opacity="1.000000" stroke="none" 
 	d="
M814.555049 62.479925 C813.833421 60.458978 815.383517 58.202576 817.353235 57.351000 C819.322954 56.499424 821.561878 56.669238 823.703356 56.807251 C835.702262 57.580557 847.796681 56.860146 859.618943 54.667919 C863.054479 54.030860 867.820943 54.055943 868.643519 57.451841 C865.875053 60.978194 860.886449 61.643105 856.420602 62.037762 C844.897934 63.056045 833.375267 64.074327 821.852599 65.092610 C819.070640 65.338457 815.494211 65.110079 814.555049 62.479925 z"/><path class="selected"  fill="#000000" opacity="1.000000" stroke="none" 
 	d="
M64.296179 54.107411 C66.680088 53.648820 67.959034 57.385173 66.448440 59.285549 C64.937845 61.185926 62.240480 61.543516 59.822332 61.757733 C47.195866 62.876276 34.569400 63.994820 21.942934 65.113363 C19.067491 65.368090 15.322475 65.075277 14.489701 62.311304 C13.893444 60.332339 15.416671 58.220100 17.316196 57.405466 C19.215722 56.590831 21.368617 56.730729 23.432196 56.846774 C37.097054 57.615216 50.856155 56.692860 64.296179 54.107411 z"/><path class="selected"  fill="#000000" opacity="1.000000" stroke="none" 
 	d="
M33.848222 127.767628 C60.925543 123.573926 86.923650 114.230697 112.365447 104.058016 C121.170132 100.537540 130.856052 95.982351 134.042111 87.051211 C142.727103 62.705497 153.594468 39.138781 166.471288 16.726052 C169.771680 10.981558 176.511523 4.496243 181.864982 8.399099 C185.759395 11.238261 184.909610 17.196777 183.483798 21.800508 C176.259355 45.127078 164.702975 67.104283 149.579631 86.277331 C140.826819 97.373959 130.434191 108.551820 128.970025 122.608956 C137.530560 115.297049 146.091094 107.985142 154.651628 100.673234 C158.503744 97.382982 163.382769 93.868084 168.182478 95.488993 C171.987737 96.774067 174.099663 100.941745 174.640292 104.921585 C175.535398 111.510897 173.013937 118.471501 168.106359 122.958806 C190.430675 117.707188 211.741522 108.181441 230.543609 95.049946 C233.256650 93.155140 236.344422 91.083099 239.592980 91.713778 C242.841538 92.344457 244.684720 97.519031 241.685564 98.917584 C233.450029 102.757933 223.724255 109.367366 225.635665 118.250990 C227.453305 126.698807 238.295149 129.129294 246.933450 128.907474 C275.605210 128.171224 303.905728 117.144663 325.517780 98.289133 C327.252189 96.775940 329.209013 95.115009 331.507601 95.235071 C333.806190 95.355132 335.688290 98.579378 333.883678 100.008118 C326.498783 116.765982 322.678868 135.084675 322.750641 153.397444 C348.969465 134.999927 375.188290 116.602410 401.407114 98.204893 C403.511911 96.727976 405.923071 95.177318 408.454089 95.630527 C410.985107 96.083735 412.679310 99.833676 410.553199 101.279741 C386.128427 117.892143 361.703656 134.504545 337.278885 151.116946 C330.973339 155.405635 324.502239 159.859445 320.315461 166.233113 C316.519298 172.012136 314.888226 178.951348 311.502575 184.980057 C308.116925 191.008766 301.854501 196.418784 295.023332 195.349631 C288.192163 194.280478 284.467786 183.493298 290.574589 180.250629 C303.104689 173.597236 312.568139 161.416198 315.917399 147.630210 C318.722518 136.083973 317.388217 123.846257 320.111359 112.280412 C299.996698 124.764098 276.991252 132.557437 253.430738 134.869181 C245.375016 135.659603 236.898274 135.746589 229.602088 132.241579 C222.305902 128.736569 216.634227 120.701273 218.250412 112.769856 C196.244979 123.104748 172.816622 130.404542 148.835375 134.398151 C146.852580 134.728347 144.651040 134.993081 142.977846 133.879112 C141.304652 132.765143 141.034007 129.686059 142.927474 129.011310 C150.739062 126.227603 157.979997 121.853234 164.078403 116.233681 C166.261323 114.222166 168.398380 111.861726 168.871285 108.931249 C169.344190 106.000772 167.380603 102.526245 164.412808 102.466843 C162.659064 102.431741 161.107831 103.527847 159.710537 104.588232 C148.254728 113.281868 137.469990 122.859567 127.483843 133.208082 C124.646977 136.147890 119.254941 132.702735 118.864141 128.636095 C118.473341 124.569455 120.985185 120.878659 123.032750 117.343441 C125.080315 113.808224 126.749690 109.339344 124.749370 105.777181 C96.139708 118.750495 65.928685 128.187752 35.021520 133.806182 C27.158458 135.235561 18.721536 136.354863 11.440319 133.060209 C-1.519774 127.195940 -4.112358 106.589226 6.991238 97.697442 C7.785819 97.061140 8.682048 96.462467 9.697265 96.387824 C12.668344 96.169379 13.978379 100.435098 12.716779 103.133873 C11.455179 105.832648 8.848680 107.689666 7.442551 110.316037 C4.329950 116.129752 8.462903 123.726631 14.410739 126.574577 C20.358576 129.422523 27.331409 128.776944 33.848221 127.767629 M147.040062 78.991355 C160.053362 60.976750 170.437718 41.066266 177.762814 20.084965 C178.501923 17.967933 178.919676 15.039002 176.931975 14.001142 C173.278459 16.669687 171.195151 20.926693 169.250842 25.011902 C161.632116 41.019696 154.013390 57.027489 146.394664 73.035282 C145.416345 75.090838 144.874696 78.288781 147.040061 78.991355 M293.355352 189.186671 C296.094478 190.508425 299.339859 188.921813 301.714750 187.021880 C305.519054 183.978394 308.581401 180.014111 310.565410 175.564477 C310.002080 174.755516 309.057094 174.225078 308.073118 174.165506 C302.525816 178.485358 297.561128 183.552390 293.355352 189.186671 z"/><path class="selected"  fill="#000000" opacity="1.000000" stroke="none" 
 	d="
M609.246790 117.265101 C594.823417 123.115701 580.400043 128.966301 565.976670 134.816901 C560.265882 137.133386 555.845829 128.726315 557.083757 122.689202 C558.321685 116.652088 561.998697 110.568578 559.982315 104.745056 C551.885191 116.538456 541.021553 126.419360 528.515514 133.365343 C524.793986 135.432318 520.166137 137.240261 516.444628 135.173253 C511.079848 132.193536 512.165693 124.148261 514.787218 118.599643 C518.177884 111.423089 522.905791 104.881025 528.655781 99.409539 C531.699784 96.512974 538.619277 95.501362 538.348035 99.694508 C530.308211 107.490179 524.181698 117.245002 520.650840 127.872527 C543.871827 119.980866 559.496724 98.070083 569.398858 75.632608 C579.300993 53.195132 585.164228 28.940402 597.349999 7.656616 C600.247455 2.595890 607.040209 -2.729116 610.965563 1.583401 C612.507987 3.277957 612.648755 5.795021 612.568887 8.085045 C611.031784 52.158080 560.492118 85.201151 564.966409 129.073418 C588.277602 118.284737 611.588795 107.496057 634.899988 96.707376 C637.601156 95.457245 641.223930 94.371051 643.194578 96.601675 C645.641563 99.371474 642.376304 103.742011 638.842074 104.823096 C635.307844 105.904181 631.205570 105.612124 628.297378 107.892901 C624.190925 111.113424 624.977550 118.031008 628.634603 121.754001 C632.291656 125.476994 637.743498 126.725358 642.919396 127.392284 C672.249664 131.171558 703.074565 120.954946 724.341402 100.405757 C726.426008 98.391496 728.660850 96.164051 731.540386 95.830736 C734.419922 95.497421 737.670198 98.420816 736.412766 101.032653 C728.626057 117.206558 724.886768 135.310113 725.628203 153.245504 C751.152748 134.914436 776.857706 116.834580 802.738099 99.009438 C806.330684 96.535042 811.586646 94.185763 814.577949 97.360886 C812.717880 105.179580 805.356793 112.180018 807.587442 119.901160 C810.165944 128.826364 822.461591 129.491102 831.621890 127.942925 C866.737905 122.007980 900.931848 110.648638 932.618770 94.391423 C935.831344 92.743188 938.826680 97.974123 937.142903 101.168211 C935.459126 104.362299 931.748408 105.780029 928.753766 107.797310 C925.759124 109.814592 923.170439 113.804830 925.107556 116.851940 C929.334352 123.500744 938.994365 110.756124 946.479707 113.214182 C944.207397 133.302391 939.461699 153.109599 932.383827 172.046421 C964.385807 145.193166 998.540146 120.905662 1034.411391 99.493566 C1038.858504 96.839016 1045.606509 94.698473 1048.345734 99.093937 C1040.835279 108.408756 1033.032285 118.386615 1031.527276 130.257070 C1052.723888 118.674888 1073.920500 107.092706 1095.117112 95.510525 C1096.935085 98.524192 1097.145690 104.258011 1093.666289 103.727933 C1076.860623 113.092598 1060.054958 122.457259 1043.249293 131.821920 C1036.321211 135.682472 1024.741788 137.716278 1022.984029 129.982426 C1021.522590 123.552335 1029.942629 118.374403 1029.438947 111.799589 C1005.096539 125.391931 981.790464 140.839723 959.789597 157.964747 C949.203480 166.204764 938.847014 174.904859 930.397337 185.324394 C918.020497 200.586623 910.192652 218.942769 902.521840 237.033663 C897.060776 233.368480 895.721818 225.611121 897.486357 219.275255 C899.250896 212.939390 903.426659 207.609248 907.219958 202.236384 C923.261721 179.514680 933.863896 152.979797 937.896526 125.459770 C928.048133 130.923278 913.834350 121.245227 915.308493 110.079760 C890.786776 119.581823 865.864862 128.382211 840.047012 133.386453 C830.624273 135.212851 820.530373 136.462937 811.701919 132.697020 C802.873465 128.931104 796.262009 118.410739 799.998264 109.569691 C781.395241 122.318857 762.792219 135.068023 744.189196 147.817188 C735.185873 153.987415 725.875655 160.484710 720.494893 169.980968 C717.398632 175.445415 715.757473 181.668879 712.382483 186.965714 C709.007494 192.262549 703.003768 196.708250 696.845733 195.473089 C690.687698 194.237929 687.221088 184.873614 692.431050 181.366005 C714.058259 166.805477 725.635940 138.705722 720.543214 113.136027 C704.653629 122.387438 688.352298 131.794879 670.265012 135.099061 C652.177727 138.403243 631.640121 134.443015 619.630151 120.520798 C618.088306 118.733458 616.485578 116.672010 614.159841 116.268502 C612.490484 115.978874 610.816837 116.628238 609.246791 117.265101 M583.222388 56.446943 C582.342414 58.430683 582.014871 61.587924 584.147777 61.988288 C594.501241 46.162772 602.397478 28.733049 607.467366 10.513902 C605.827455 8.786926 603.238008 11.325378 602.272319 13.502348 C595.922342 27.817213 589.572365 42.132078 583.222388 56.446943 M696.017947 188.295683 C697.557147 190.749521 701.375816 189.212613 703.542698 187.290354 C707.374058 183.891514 710.688869 179.911450 713.338604 175.528492 C713.158928 174.342476 711.679767 173.736850 710.518045 174.035710 C709.356323 174.334571 708.465265 175.240997 707.637492 176.109160 C703.764311 180.171335 699.891129 184.233509 696.017947 188.295683 z"/></svg>